<svg width="20" height="20" viewBox="0 0 20 20" fill="none" xmlns="http://www.w3.org/2000/svg">
<path d="M19.9191 5.90309C19.9079 5.06334 19.7507 4.23193 19.4545 3.44606C19.1976 2.78318 18.8053 2.18117 18.3027 1.67849C17.8 1.17581 17.198 0.783514 16.5351 0.526666C15.7593 0.235455 14.9398 0.0779923 14.1113 0.0609825C13.0447 0.0133053 12.7065 0 9.99889 0C7.29127 0 6.94423 7.45058e-08 5.88535 0.0609825C5.05728 0.0781174 4.23811 0.235578 3.46269 0.526666C2.79971 0.783335 2.19761 1.17557 1.6949 1.67827C1.1922 2.18097 0.799967 2.78308 0.543298 3.44606C0.251504 4.22124 0.0943826 5.04059 0.0787232 5.86872C0.0310461 6.93647 0.0166321 7.27464 0.0166321 9.98226C0.0166321 12.6899 0.0166321 13.0358 0.0787232 14.0958C0.0953548 14.9252 0.251691 15.7434 0.543298 16.5207C0.800397 17.1835 1.19292 17.7853 1.69579 18.2878C2.19866 18.7903 2.80082 19.1824 3.4638 19.439C4.23709 19.7419 5.05641 19.9106 5.88646 19.9379C6.95421 19.9856 7.29238 20 10 20C12.7076 20 13.0547 20 14.1135 19.9379C14.942 19.9216 15.7616 19.7645 16.5373 19.4733C17.2 19.2162 17.8019 18.8238 18.3045 18.3211C18.8072 17.8185 19.1996 17.2166 19.4567 16.5539C19.7483 15.7778 19.9046 14.9595 19.9213 14.1291C19.969 13.0624 19.9834 12.7242 19.9834 10.0155C19.9812 7.30791 19.9812 6.96419 19.9191 5.90309ZM9.99224 15.1026C7.16044 15.1026 4.86639 12.8085 4.86639 9.97672C4.86639 7.14492 7.16044 4.85087 9.99224 4.85087C11.3517 4.85087 12.6555 5.39091 13.6168 6.3522C14.578 7.31348 15.1181 8.61726 15.1181 9.97672C15.1181 11.3362 14.578 12.64 13.6168 13.6012C12.6555 14.5625 11.3517 15.1026 9.99224 15.1026ZM15.3221 5.85653C15.1651 5.85667 15.0096 5.82586 14.8645 5.76584C14.7194 5.70582 14.5876 5.61779 14.4766 5.50677C14.3656 5.39575 14.2775 5.26393 14.2175 5.11885C14.1575 4.97377 14.1267 4.81828 14.1268 4.66127C14.1268 4.50438 14.1577 4.34903 14.2178 4.20408C14.2778 4.05913 14.3658 3.92743 14.4768 3.81649C14.5877 3.70555 14.7194 3.61755 14.8644 3.55751C15.0093 3.49747 15.1647 3.46657 15.3215 3.46657C15.4784 3.46657 15.6338 3.49747 15.7787 3.55751C15.9237 3.61755 16.0554 3.70555 16.1663 3.81649C16.2773 3.92743 16.3653 4.05913 16.4253 4.20408C16.4853 4.34903 16.5162 4.50438 16.5162 4.66127C16.5162 5.3221 15.9818 5.85653 15.3221 5.85653Z" fill="black"/>
<path d="M9.99259 13.3056C11.8315 13.3056 13.3222 11.8148 13.3222 9.97594C13.3222 8.13703 11.8315 6.6463 9.99259 6.6463C8.15368 6.6463 6.66295 8.13703 6.66295 9.97594C6.66295 11.8148 8.15368 13.3056 9.99259 13.3056Z" fill="black"/>
</svg>
