<svg width="93" height="32" viewBox="0 0 93 32" fill="none" xmlns="http://www.w3.org/2000/svg">
<path d="M61.2215 8.86413H56.6008C56.1362 8.86413 55.7606 9.23963 55.7606 9.70425V30.7068C55.7606 31.1715 56.1362 31.5469 56.6008 31.5469H61.2215C61.6861 31.5469 62.0614 31.1715 62.0614 30.7068V9.70425C62.0614 9.23963 61.6861 8.86413 61.2215 8.86413Z" fill="#202020"/>
<path d="M73.4034 14.2739V30.7068C73.4034 31.1715 73.7791 31.5469 74.2436 31.5469H78.864C79.3286 31.5469 79.7042 31.1715 79.7042 30.7068V16.5969C79.7042 15.8046 80.3438 15.1649 81.1364 15.1649H84.5667C85.3589 15.1649 85.9986 15.8046 85.9986 16.5969V30.7068C85.9986 31.1715 86.3742 31.5469 86.8388 31.5469H91.4592C91.924 31.5469 92.2994 31.1715 92.2994 30.7068V14.2739C92.2994 11.2858 89.8778 8.86413 86.8895 8.86413H78.8133C75.825 8.86413 73.4034 11.2858 73.4034 14.2739Z" fill="#202020"/>
<path d="M58.911 0.00133133C56.9983 0.00133133 55.4455 1.55425 55.4455 3.46677C55.4455 5.37926 56.9983 6.93218 58.911 6.93218C60.8234 6.93218 62.3764 5.37926 62.3764 3.46677C62.3764 1.55425 60.8268 0.00133133 58.911 0.00133133Z" fill="#202020"/>
<path d="M70.0428 1.30283H65.4219C64.9574 1.30283 64.582 1.67834 64.582 2.14296V30.7075C64.582 31.172 64.9574 31.5476 65.4219 31.5476H70.0428C70.5074 31.5476 70.883 31.172 70.883 30.7075V2.14296C70.883 1.67834 70.5074 1.30283 70.0428 1.30283Z" fill="#202020"/>
<path d="M54.3598 30.2387L47.9667 20.6507C47.7852 20.3802 47.779 20.027 47.9476 19.747L53.8124 10.1399C54.1561 9.57983 53.7518 8.86065 53.0965 8.86065H48.1288C47.8362 8.86065 47.5658 9.01337 47.4129 9.26159L43.6038 15.4987C43.4417 15.7629 43.1552 15.9474 42.8211 15.9474C42.3119 15.9474 41.8981 15.5337 41.8981 15.0246V3.09129C41.8981 2.62668 41.5228 2.25118 41.0579 2.25118H36.4376C35.973 2.25118 35.5973 2.62668 35.5973 3.09129V30.7065C35.5973 31.171 35.973 31.5466 36.4376 31.5466H41.0579C41.5228 31.5466 41.8981 31.171 41.8981 30.7065V25.0008C41.8981 24.4917 42.3119 24.078 42.8211 24.078C43.1392 24.078 43.4161 24.2371 43.5847 24.4821L48.0463 31.1744C48.202 31.4067 48.4632 31.5497 48.7463 31.5497H53.6629C54.3342 31.5497 54.7351 30.8021 54.3628 30.2451" fill="#202020"/>
<path d="M13.9858 10.4326C14.1544 10.2607 14.3867 10.1557 14.6445 10.1557C14.9023 10.1557 15.1314 10.2575 15.2969 10.4262L19.3892 14.5185C19.7201 14.8495 20.2579 14.8495 20.5889 14.5185L23.8443 11.2631C24.1752 10.9322 24.1752 10.3944 23.8443 10.0634L17.0248 3.2344C15.7137 1.92334 13.5848 1.92334 12.2737 3.2344L5.44472 10.0634C5.11377 10.3944 5.11377 10.9322 5.44472 11.2631L8.70012 14.5185C9.03107 14.8495 9.56885 14.8495 9.89983 14.5185L13.9858 10.4326Z" fill="#FF6521"/>
<path d="M28.3089 14.5221L26.8292 13.0424C26.4983 12.7114 25.9605 12.7114 25.6295 13.0424L15.2969 23.375C15.1314 23.5405 14.8991 23.6455 14.6445 23.6455C14.3899 23.6455 14.1608 23.5437 13.9922 23.3782L3.66271 13.0424C3.33176 12.7114 2.79398 12.7114 2.46303 13.0424L0.983302 14.5221C-0.32777 15.8332 -0.32777 17.9621 0.983302 19.2732L12.2706 30.5605C13.5817 31.8716 15.7106 31.8716 17.0216 30.5605L28.3089 19.2732C29.62 17.9621 29.62 15.8332 28.3089 14.5221Z" fill="#202020"/>
</svg>
