<svg width="20" height="20" viewBox="0 0 20 20" fill="none" xmlns="http://www.w3.org/2000/svg">
<path d="M6.2896 18.1255C13.8368 18.1255 17.9648 11.8727 17.9648 6.45029C17.9648 6.27269 17.9648 6.09589 17.9528 5.91989C18.7559 5.33902 19.4491 4.61979 20 3.79589C19.2512 4.12789 18.4567 4.34552 17.6432 4.44149C18.4998 3.92873 19.141 3.12214 19.4472 2.17189C18.6417 2.6499 17.7605 2.98675 16.8416 3.16789C16.2229 2.51004 15.4047 2.07443 14.5135 1.92846C13.6223 1.7825 12.7078 1.93432 11.9116 2.36044C11.1154 2.78655 10.4819 3.4632 10.109 4.28568C9.73605 5.10816 9.64462 6.03061 9.8488 6.91029C8.21741 6.82846 6.62146 6.40448 5.16455 5.6659C3.70763 4.92731 2.4223 3.89061 1.392 2.62309C0.867274 3.52642 0.70656 4.59578 0.942583 5.61344C1.17861 6.63111 1.79362 7.52055 2.6624 8.10069C2.00936 8.08156 1.37054 7.90539 0.8 7.58709V7.63909C0.800259 8.58647 1.12821 9.50459 1.72823 10.2377C2.32824 10.9709 3.16338 11.4739 4.092 11.6615C3.4879 11.8263 2.85406 11.8504 2.2392 11.7319C2.50151 12.5472 3.01202 13.2601 3.69937 13.771C4.38671 14.2819 5.21652 14.5653 6.0728 14.5815C5.22203 15.2502 4.24776 15.7446 3.20573 16.0365C2.16369 16.3283 1.07435 16.4119 0 16.2823C1.87653 17.4865 4.05994 18.1252 6.2896 18.1223" fill="black"/>
</svg>
