<svg width="20" height="20" viewBox="0 0 20 20" fill="none" xmlns="http://www.w3.org/2000/svg">
<path d="M8.4832 1.7649C9.28124 0.836342 10.7188 0.836343 11.5168 1.7649L11.5645 1.82039C12.0518 2.3874 12.8147 2.63527 13.5422 2.46298L13.6134 2.44612C14.8048 2.16397 15.9678 3.00893 16.0676 4.22922L16.0736 4.30214C16.1345 5.04729 16.606 5.69622 17.2958 5.98446L17.3633 6.01267C18.4931 6.4847 18.9373 7.85188 18.3008 8.89779L18.2627 8.96029C17.8741 9.59896 17.8741 10.4011 18.2627 11.0397L18.3008 11.1022C18.9373 12.1481 18.4931 13.5153 17.3633 13.9874L17.2958 14.0156C16.606 14.3038 16.1345 14.9527 16.0736 15.6979L16.0676 15.7708C15.9678 16.9911 14.8048 17.836 13.6134 17.5539L13.5422 17.537C12.8147 17.3648 12.0518 17.6126 11.5645 18.1796L11.5168 18.2351C10.7188 19.1637 9.28123 19.1637 8.4832 18.2351L8.43551 18.1796C7.94821 17.6126 7.18535 17.3648 6.45783 17.537L6.38663 17.5539C5.19522 17.836 4.03223 16.9911 3.9324 15.7708L3.92644 15.6979C3.86548 14.9527 3.39401 14.3038 2.70416 14.0156L2.63665 13.9873C1.50694 13.5153 1.06272 12.1481 1.69922 11.1022L1.73726 11.0397C2.12593 10.4011 2.12593 9.59896 1.73726 8.96029L1.69922 8.89779C1.06272 7.85188 1.50694 6.4847 2.63665 6.01267L2.70417 5.98446C3.39401 5.69622 3.86548 5.04729 3.92644 4.30214L3.9324 4.22922C4.03223 3.00893 5.19522 2.16397 6.38663 2.44612L6.45783 2.46298C7.18535 2.63527 7.94821 2.3874 8.43551 1.82039L8.4832 1.7649Z" fill="black" stroke="white" stroke-width="2"/>
<path d="M6.5002 9.5L9.0002 12L13.5002 7.5" stroke="white" stroke-width="1.5" stroke-linejoin="round"/>
</svg>
